<?xml version="1.0" encoding="UTF-8" standalone="no"?>
<svg
   version="1.1"
   x="0px"
   y="0px"
   viewBox="0 0 754.73428 758.80619"
   enable-background="new 0 0 1000 1000"
   xml:space="preserve"
   id="svg12"
   width="1000.0938"
   height="1000.4418"
   xmlns:xlink="http://www.w3.org/1999/xlink"
   xmlns="http://www.w3.org/2000/svg"
   xmlns:svg="http://www.w3.org/2000/svg"
   xmlns:rdf="http://www.w3.org/1999/02/22-rdf-syntax-ns#"
   xmlns:cc="http://creativecommons.org/ns#"
   xmlns:dc="http://purl.org/dc/elements/1.1/"><defs
   id="defs16"><linearGradient
     id="linearGradient930"><stop
       style="stop-color:#28a745;stop-opacity:1"
       offset="0"
       id="stop926" /><stop
       style="stop-color:#28a745;stop-opacity:1"
       offset="0.5"
       id="stop934" /><stop
       style="stop-color:#286845;stop-opacity:1"
       offset="1"
       id="stop928" /></linearGradient><linearGradient
     id="linearGradient895"><stop
       style="stop-color:#29f076;stop-opacity:1"
       offset="0"
       id="stop891" /><stop
       style="stop-color:#217844;stop-opacity:1"
       offset="1"
       id="stop893" /></linearGradient><linearGradient
     xlink:href="#linearGradient895"
     id="linearGradient897"
     x1="-435.71127"
     y1="-4269.4053"
     x2="10465.344"
     y2="3044.4788"
     gradientUnits="userSpaceOnUse"
     gradientTransform="matrix(1.1008109,0,0,1.6407151,-1046.2419,-2293.0366)" /><linearGradient
     xlink:href="#linearGradient930"
     id="linearGradient932"
     x1="1588.4608"
     y1="-2689.3672"
     x2="9730.792"
     y2="6345.0054"
     gradientUnits="userSpaceOnUse"
     gradientTransform="matrix(0.57243637,0,0,-0.59322338,-606.69319,2001.8235)" /></defs>
<metadata
   id="metadata2"> Svg Vector Icons : http://www.onlinewebfonts.com/icon <rdf:RDF><cc:Work
     rdf:about=""><dc:format>image/svg+xml</dc:format><dc:type
       rdf:resource="http://purl.org/dc/dcmitype/StillImage" /></cc:Work></rdf:RDF></metadata>
<g
   id="g10"
   transform="translate(122.76134,-39.755121)"><g
     transform="matrix(0.1,0,0,-0.1,0,512)"
     id="g8"><path
       id="rect924"
       style="fill:url(#linearGradient932);fill-opacity:1;stroke:none;stroke-width:76.514"
       d="m 1922.1406,4269.9516 c -1523.81021,0 -2750.55641,-1226.7582 -2750.55641,-2750.5685 V 319.2634 c 0,-1523.8104 1226.7462,-2750.5564 2750.55641,-2750.5564 h 1198.1577 c 1523.81,0 2750.557,1226.746 2750.557,2750.5564 v 1200.1197 c 0,1523.8103 -1226.747,2750.5685 -2750.557,2750.5685 z M 3857.2968,3392.227 c 0,0 775.0204,-36.7987 864.2869,-52.2282 64.018,-11.5761 40.6574,-75.4885 40.6574,-75.4885 L 4462.583,2461.1206 c 0,0 -27.4818,-108.6458 -72.1229,-37.7203 -44.6736,71.4946 -153.0459,243.1729 -153.0459,243.1729 0,0 -46.2407,-29.0937 -117.1331,-73.4192 -32.6437,-20.5953 -169.9908,-107.0148 -241.8647,-152.273 371.0908,-184.1243 586.9445,-554.9933 568.0178,-985.261 -4.2247,-97.2948 -58.3351,-303.6975 -101.3765,-392.7106 -92.7047,-187.45819 -210.5344,-329.66695 -373.363,-451.70535 -36.3598,-26.68653 -270.3886,-177.06226 -533.4961,-342.7419 101.4881,-159.55755 207.0818,-325.764006 267.5031,-422.24963 42.6005,-66.70893 70.0539,-110.34283 70.0539,-110.34283 0,0 178.2361,111.88325 252.1392,158.70625 73.8228,46.464798 46.77,-60.69509 46.77,-60.69509 l -114.3981,-831.88216 c 0,0 -9.9788,-66.25929 -72.884,-52.32339 -86.852,20.3981 -796.5877,283.09329 -796.5877,283.09329 0,0 -110.3986,25.26101 -20.5844,81.79091 l 232.8627,146.56491 c 0,0 -24.7767,38.87222 -62.4193,99.16469 -58.4118,92.56096 -164.2144,258.97493 -266.231,419.443168 -192.1748,-115.513008 -250.1144,-137.472238 -359.9133,-167.744018 -462.499,-126.23185 -948.4311,45.53769 -1193.8055,423.33181 -49.3428,74.62171 -58.6531,132.47828 -36.5549,218.08139 14.8027,57.34204 22.0668,72.44832 50.9082,106.45427 38.8573,46.95511 115.6336,94.8407 170.717,107.33433 63.6746,13.33497 128.2144,4.18786 187.0917,-26.91085 41.18,-21.93463 60.6329,-40.50533 105.6456,-99.46204 101.5273,-131.64703 187.2319,-185.23706 339.6382,-213.72905 80.6873,-14.70002 106.974,-16.44643 164.8305,-9.43013 139.014,16.94614 142.8194,18.66423 732.7889,392.52042 590.5368,372.8444 592.7102,374.8818 668.6095,493.8613 32.313,50.6641 40.987,71.2599 63.0852,156.8632 21.8975,84.8249 24.3853,107.4397 20.0495,165.1515 -21.6231,301.7903 -281.0898,511.618 -589.4585,476.9395 -117.3638,-13.0048 -165.2023,-33.6669 -403.1635,-181.1579 -70.0006,-44.046 -212.7893,-133.8889 -237.9167,-149.7042 0,0 -12.4245,-12.5362 -29.8958,-10.7145 -12.8807,-6.886 -21.5875,-11.065 -23.9498,-11.19 -11.9502,-1.0123 -61.5315,17.5863 -125.7902,47.2694 -138.8906,64.6285 -195.6271,84.6136 -343.0154,119.5351 -101.7849,23.7013 -122.5028,30.9501 -126.016,43.1906 -3.9671,10.6511 -0.7403,19.9182 10.096,32.6664 21.9205,23.4894 613.778,394.2623 819.1819,515.0286 391.077,246.1263 865.3541,544.5984 997.2122,627.3929 63.6205,40.338 105.0867,66.1414 105.0867,66.1414 l -141.2256,224.3841 c -22.1837,35.245 -16.6571,52.8103 -2.2832,61.2421 21.0081,12.3234 60.9211,5.1491 60.9211,5.1491 z M 2035.4325,1638.1573 c 332.8508,-26.091 634.544,-198.6751 805.6374,-462.4436 49.3429,-74.6216 58.6652,-132.4781 36.5669,-218.08143 -14.6019,-56.56361 -22.0561,-72.41918 -50.9083,-106.46618 -41.3228,-49.74828 -103.2584,-88.96279 -166.9472,-105.56239 -42.1429,-10.85501 -58.8756,-10.94269 -116.8477,1.0227 -85.0641,17.17533 -113.4837,36.6595 -184.4637,127.82362 -93.9588,121.93716 -188.2016,181.29038 -330.8501,208.72268 -135.4601,26.05 -247.5426,9.694 -376.2289,-54.5946 C 1613.8595,1009.3987 1356.9544,850.20089 1081.6845,674.76505 539.28983,329.76454 529.91252,322.49038 458.22775,206.82761 436.93512,173.00373 412.4146,120.03818 400.06561,82.000678 344.72268,-87.10515 381.11488,-286.19819 490.24023,-411.05196 609.30256,-546.0711 782.05996,-612.27282 963.76667,-591.97194 c 121.48183,13.73992 167.03173,34.7028 428.14793,197.21154 l 240.0572,149.22863 35.8654,-6.90901 c 19.9449,-3.83559 50.3933,-15.48208 67.8895,-25.42444 76.7262,-46.09609 212.1149,-95.22235 343.3602,-124.58908 71.8953,-16.3195 138.0301,-32.31493 146.1843,-36.37663 23.5077,-9.46468 23.0219,-30.78221 -1.8193,-55.71247 -40.47,-40.02419 -802.1176,-511.8525 -882.0175,-545.9707 -151.3847,-64.8676 -312.2141,-98.2567 -481.91011,-101.091 -97.31717,-1.0613 -307.6439,39.3878 -400.01223,76.9272 -417.561394,171.01289 -668.88381,568.04748 -644.58823,1018.486333 5.62752,99.518498 59.15313,306.847437 101.792744,394.304167 C 9.4626616,535.56269 127.29383,677.77655 290.912,799.66328 c 53.99276,40.47599 269.2976,178.69907 501.40055,324.53562 298.41795,187.5043 624.61055,387.5931 671.45145,408.7171 183.5661,82.5822 385.5161,119.587 571.6685,105.2413 z" /><g
       id="g3872"
       transform="matrix(4.336009,0,0,-3.6253455,1876.019,-0.49433026)"><g
         id="g3842" /><g
         id="g3844" /><g
         id="g3846" /><g
         id="g3848" /><g
         id="g3850" /><g
         id="g3852" /><g
         id="g3854" /><g
         id="g3856" /><g
         id="g3858" /><g
         id="g3860" /><g
         id="g3862" /><g
         id="g3864" /><g
         id="g3866" /><g
         id="g3868" /><g
         id="g3870" /></g><g
       id="g3874"
       transform="matrix(4.336009,0,0,-3.6253455,2598.9969,-715.51589)" /><g
       id="g3876"
       transform="matrix(4.336009,0,0,-3.6253455,2598.9969,-715.51589)" /><g
       id="g3878"
       transform="matrix(4.336009,0,0,-3.6253455,2598.9969,-715.51589)" /><g
       id="g3880"
       transform="matrix(4.336009,0,0,-3.6253455,2598.9969,-715.51589)" /><g
       id="g3882"
       transform="matrix(4.336009,0,0,-3.6253455,2598.9969,-715.51589)" /><g
       id="g3884"
       transform="matrix(4.336009,0,0,-3.6253455,2598.9969,-715.51589)" /><g
       id="g3886"
       transform="matrix(4.336009,0,0,-3.6253455,2598.9969,-715.51589)" /><g
       id="g3888"
       transform="matrix(4.336009,0,0,-3.6253455,2598.9969,-715.51589)" /><g
       id="g3890"
       transform="matrix(4.336009,0,0,-3.6253455,2598.9969,-715.51589)" /><g
       id="g3892"
       transform="matrix(4.336009,0,0,-3.6253455,2598.9969,-715.51589)" /><g
       id="g3894"
       transform="matrix(4.336009,0,0,-3.6253455,2598.9969,-715.51589)" /><g
       id="g3896"
       transform="matrix(4.336009,0,0,-3.6253455,2598.9969,-715.51589)" /><g
       id="g3898"
       transform="matrix(4.336009,0,0,-3.6253455,2598.9969,-715.51589)" /><g
       id="g3900"
       transform="matrix(4.336009,0,0,-3.6253455,2598.9969,-715.51589)" /><g
       id="g3902"
       transform="matrix(4.336009,0,0,-3.6253455,2598.9969,-715.51589)" /></g></g>
</svg>
